<?xml version="1.0" encoding="utf-8"?>
<!DOCTYPE svg PUBLIC "-//W3C//DTD SVG 1.1//EN" "http://www.w3.org/Graphics/SVG/1.1/DTD/svg11.dtd">
<svg xmlns="http://www.w3.org/2000/svg" xmlns:xlink="http://www.w3.org/1999/xlink" version="1.1" baseProfile="full" width="209.5" height="50.2786" viewBox="0 0 209.50 50.28" enable-background="new 0 0 209.50 50.28" xml:space="preserve">
	<g>
		<path fill="#FFFFFF" fill-opacity="1" stroke-width="0.2" stroke-linejoin="round" d="M 187.073,26.5011C 187.077,25.9781 187.206,25.5041 187.456,25.0766C 187.711,24.6545 188.046,24.3182 188.473,24.0648C 188.895,23.8155 189.37,23.6861 189.893,23.6808L 198.784,23.6808C 199.307,23.6861 199.782,23.8155 200.209,24.0648C 200.631,24.3182 200.967,24.6545 201.221,25.0766C 201.47,25.5041 201.599,25.9781 201.605,26.5011L 201.605,27.7961L 201.605,28.6595L 201.605,28.9756L 200.617,28.9756L 198.904,28.9756L 196.717,28.9756L 194.296,28.9756L 191.878,28.9756L 189.705,28.9756L 188.027,28.9756L 187.073,28.9756L 187.073,28.6118L 187.073,27.6911M 189.893,21.9827C 189.264,21.988 188.674,22.1036 188.133,22.338C 187.586,22.5682 187.107,22.8896 186.694,23.3021C 186.281,23.7147 185.96,24.1942 185.73,24.7404C 185.495,25.2834 185.38,25.8732 185.374,26.5011L 185.374,32.4291C 185.38,33.057 185.495,33.6467 185.73,34.1887C 185.96,34.736 186.281,35.2155 186.694,35.627C 187.107,36.0406 187.586,36.3609 188.133,36.5922C 188.674,36.8266 189.264,36.9422 189.893,36.9464L 201.892,36.9464C 202.132,36.9422 202.333,36.8605 202.497,36.6971C 202.664,36.5391 202.751,36.3334 202.755,36.0831C 202.751,35.8486 202.664,35.6514 202.497,35.4933C 202.333,35.3353 202.132,35.2536 201.892,35.2493L 189.893,35.2493C 189.37,35.2441 188.895,35.1147 188.473,34.8654C 188.046,34.6109 187.711,34.2757 187.456,33.8483C 187.206,33.4261 187.077,32.952 187.073,32.4291L 187.073,31.5275L 187.073,30.9039L 187.073,30.6737L 187.284,30.6737L 188.089,30.6737L 189.749,30.6737L 192.521,30.6737L 196.664,30.6737L 202.439,30.6737C 202.689,30.6684 202.894,30.5867 203.052,30.4244C 203.216,30.2653 203.297,30.0596 203.302,29.8104L 203.302,26.5011C 203.297,25.8732 203.178,25.2834 202.942,24.7404C 202.712,24.1942 202.386,23.7147 201.974,23.3021C 201.556,22.8896 201.077,22.5682 200.534,22.338C 199.993,22.1036 199.408,21.988 198.784,21.9827M 182.468,21.9827L 166.498,21.9827C 166.248,21.988 166.042,22.0696 165.884,22.2277C 165.721,22.3868 165.639,22.583 165.635,22.8174C 165.639,23.0762 165.73,23.283 165.899,23.4273C 166.066,23.5757 166.277,23.6479 166.527,23.6522L 180.167,23.6522C 179.803,23.9492 179.322,24.348 178.727,24.8369C 178.138,25.3259 177.471,25.8828 176.732,26.4968C 175.989,27.1099 175.218,27.758 174.406,28.4283C 173.592,29.105 172.786,29.7817 171.979,30.4478C 171.174,31.1192 170.412,31.7577 169.693,32.357C 168.968,32.9605 168.331,33.4929 167.769,33.9638C 167.208,34.4284 166.766,34.7975 166.445,35.067C 166.125,35.3353 165.956,35.4742 165.951,35.4785C 165.836,35.5654 165.75,35.6662 165.692,35.7861C 165.635,35.9006 165.606,36.0406 165.606,36.1987C 165.611,36.3472 165.654,36.4819 165.741,36.606C 165.827,36.7311 165.941,36.8266 166.076,36.8934C 166.211,36.9655 166.349,36.9899 166.498,36.975L 182.498,36.975C 182.719,36.9708 182.9,36.8987 183.049,36.7545C 183.193,36.6113 183.27,36.4193 183.274,36.17C 183.27,35.9494 183.193,35.7574 183.049,35.6036C 182.9,35.4498 182.719,35.3682 182.498,35.364L 182.051,35.364L 180.853,35.364L 179.092,35.364L 176.977,35.364L 174.699,35.364L 172.46,35.364L 170.455,35.364L 168.887,35.364C 169.246,35.0616 169.716,34.6682 170.301,34.1845C 170.887,33.6955 171.548,33.144 172.276,32.5341C 173.01,31.9252 173.783,31.2825 174.589,30.6111C 175.389,29.9397 176.195,29.2725 176.996,28.6065C 177.792,27.9446 178.55,27.3114 179.269,26.7175C 179.984,26.1171 180.622,25.59 181.179,25.1243C 181.734,24.664 182.176,24.2949 182.498,24.0308C 182.818,23.7625 182.982,23.6288 182.986,23.6235C 183.107,23.5175 183.183,23.369 183.217,23.1865C 183.25,23.0051 183.24,22.8174 183.193,22.6307C 183.14,22.4388 183.058,22.285 182.934,22.1608C 182.809,22.0314 182.655,21.9731 182.468,21.9827 Z M 161.088,20.1414C 161.093,20.3768 161.174,20.5784 161.338,20.7459C 161.496,20.9093 161.702,20.9952 161.951,21.0048C 162.186,20.9952 162.388,20.9093 162.555,20.7459C 162.719,20.5784 162.806,20.3768 162.814,20.1414L 162.814,19.1348C 162.806,18.8856 162.719,18.6788 162.555,18.5207C 162.388,18.3574 162.186,18.2757 161.951,18.2714C 161.702,18.2757 161.496,18.3574 161.338,18.5207C 161.174,18.6788 161.093,18.8856 161.088,19.1348M 161.951,21.9827C 161.702,21.988 161.496,22.0696 161.338,22.2277C 161.174,22.3868 161.093,22.583 161.088,22.8174L 161.088,36.0831C 161.093,36.3334 161.174,36.5391 161.338,36.6971C 161.496,36.8605 161.702,36.9422 161.951,36.9464C 162.186,36.9422 162.388,36.8605 162.555,36.6971C 162.719,36.5391 162.806,36.3334 162.814,36.0831L 162.814,22.8174C 162.806,22.583 162.719,22.3868 162.555,22.2277C 162.388,22.0696 162.186,21.988 161.951,21.9827 Z M 147.909,21.9827C 147.41,21.988 146.935,22.075 146.484,22.2425C 146.034,22.4101 145.617,22.6456 145.228,22.9426C 144.839,23.2396 144.484,23.58 144.168,23.9693C 143.89,23.58 143.563,23.2396 143.189,22.9426C 142.816,22.6456 142.398,22.4101 141.948,22.2425C 141.492,22.075 141.003,21.988 140.485,21.9827L 134.729,21.9827C 134.106,21.988 133.521,22.1121 132.979,22.3571C 132.437,22.5968 131.958,22.933 131.545,23.3636C 131.127,23.7911 130.807,24.2853 130.571,24.8465C 130.336,25.4075 130.217,26.0068 130.212,26.6442L 130.212,36.1127C 130.217,36.3472 130.298,36.5434 130.457,36.7014C 130.615,36.8605 130.811,36.9422 131.047,36.9464C 131.205,36.9464 131.348,36.9083 131.482,36.8318C 131.617,36.7598 131.727,36.659 131.808,36.5338C 131.89,36.4097 131.933,36.2655 131.939,36.1127L 131.939,26.6442C 131.943,26.1129 132.073,25.6282 132.321,25.2007C 132.572,24.7744 132.907,24.4339 133.329,24.1846C 133.747,23.9301 134.217,23.8006 134.729,23.7964L 140.485,23.7964C 141.017,23.8006 141.497,23.9301 141.918,24.1846C 142.34,24.4339 142.677,24.7744 142.926,25.2007C 143.175,25.6282 143.299,26.1129 143.305,26.6442L 143.305,36.1127C 143.31,36.3472 143.396,36.5434 143.554,36.7014C 143.713,36.8605 143.919,36.9422 144.312,36.9178C 144.537,36.8849 144.729,36.7936 144.892,36.6441C 145.056,36.4957 145.136,36.3185 145.147,36.1127L 145.147,26.6442C 145.151,26.1129 145.276,25.6282 145.526,25.2007C 145.77,24.7744 146.1,24.4339 146.513,24.1846C 146.93,23.9301 147.396,23.8006 147.909,23.7964L 153.894,23.7964C 154.455,23.8006 154.954,23.9301 155.391,24.1846C 155.828,24.4339 156.167,24.7744 156.417,25.2007C 156.671,25.6282 156.796,26.1129 156.8,26.6442L 156.8,36.1127C 156.806,36.3472 156.892,36.5434 157.05,36.7014C 157.209,36.8605 157.414,36.9422 157.664,36.9464C 157.913,36.9422 158.12,36.8605 158.278,36.7014C 158.441,36.5434 158.523,36.3472 158.527,36.1127L 158.527,26.6442C 158.523,26.0068 158.403,25.4075 158.168,24.8465C 157.932,24.2853 157.601,23.7911 157.184,23.3636C 156.763,22.933 156.273,22.5968 155.712,22.3571C 155.151,22.1121 154.546,21.988 153.894,21.9827M 125.693,20.1414C 125.699,20.3768 125.78,20.5784 125.943,20.7459C 126.102,20.9093 126.308,20.9952 126.557,21.0048C 126.792,20.9952 126.994,20.9093 127.161,20.7459C 127.325,20.5784 127.411,20.3768 127.42,20.1414L 127.42,19.1348C 127.411,18.8856 127.325,18.6788 127.161,18.5207C 126.994,18.3574 126.792,18.2757 126.557,18.2714C 126.308,18.2757 126.102,18.3574 125.943,18.5207C 125.78,18.6788 125.699,18.8856 125.693,19.1348M 126.557,21.9827C 126.308,21.988 126.102,22.0696 125.943,22.2277C 125.78,22.3868 125.699,22.583 125.693,22.8174L 125.693,36.0831C 125.699,36.3334 125.78,36.5391 125.943,36.6971C 126.102,36.8605 126.308,36.9422 126.557,36.9464C 126.792,36.9422 126.994,36.8605 127.161,36.6971C 127.325,36.5391 127.411,36.3334 127.42,36.0831L 127.42,22.8174C 127.411,22.583 127.325,22.3868 127.161,22.2277C 126.994,22.0696 126.792,21.988 126.557,21.9827 Z M 119.738,35.2197C 119.214,35.2155 118.74,35.086 118.318,34.8367C 117.89,34.5822 117.555,34.246 117.3,33.8196C 117.051,33.3975 116.922,32.9233 116.918,32.4005L 116.918,23.6522L 122.759,23.6522C 123.008,23.6479 123.214,23.5652 123.373,23.4071C 123.536,23.2491 123.617,23.0529 123.622,22.8174C 123.617,22.5682 123.536,22.3624 123.373,22.2033C 123.214,22.041 123.008,21.9594 122.759,21.954L 116.918,21.954L 116.918,14.7893C 116.908,14.54 116.821,14.3332 116.658,14.1752C 116.49,14.0129 116.289,13.9302 116.053,13.9259C 115.805,13.9302 115.598,14.0129 115.44,14.1752C 115.277,14.3332 115.195,14.54 115.191,14.7893L 115.191,32.4005C 115.195,33.0284 115.315,33.6181 115.55,34.1653C 115.786,34.7169 116.111,35.1964 116.524,35.6132C 116.941,36.0258 117.421,36.3525 117.973,36.5869C 118.519,36.8212 119.109,36.9422 119.738,36.9464L 122.787,36.9464C 123.036,36.9422 123.243,36.8605 123.401,36.6971C 123.565,36.5391 123.646,36.3334 123.651,36.0831C 123.646,35.8486 123.565,35.6471 123.401,35.4785C 123.243,35.3162 123.036,35.2292 122.787,35.2197M 94.6448,26.5297C 94.649,26.0068 94.7784,25.5317 95.0277,25.1053C 95.2823,24.6831 95.6185,24.348 96.0449,24.0934C 96.467,23.8441 96.9411,23.7147 97.4651,23.7094L 108.342,23.7094C 108.865,23.7147 109.339,23.8441 109.767,24.0934C 110.189,24.348 110.524,24.6831 110.778,25.1053C 111.028,25.5317 111.157,26.0068 111.161,26.5297L 111.161,32.4005C 111.157,32.9233 111.028,33.3975 110.778,33.8196C 110.524,34.246 110.189,34.5822 109.767,34.8367C 109.339,35.086 108.865,35.2155 108.342,35.2197L 97.4651,35.2197C 96.9411,35.2155 96.467,35.086 96.0449,34.8367C 95.6185,34.5822 95.2823,34.246 95.0277,33.8196C 94.7784,33.3975 94.649,32.9233 94.6448,32.4005M 97.4651,21.9827C 96.8361,21.988 96.2464,22.1078 95.7002,22.3433C 95.1486,22.5777 94.6681,22.8991 94.2513,23.317C 93.8387,23.7338 93.5131,24.2132 93.2776,24.7648C 93.0432,25.311 92.9233,25.9018 92.9181,26.5297L 92.9181,32.4005C 92.9233,33.0284 93.0432,33.6181 93.2776,34.1653C 93.5131,34.7169 93.8387,35.1964 94.2513,35.6132C 94.6681,36.0258 95.1486,36.3525 95.7002,36.5869C 96.2464,36.8212 96.8361,36.9422 97.4651,36.9464L 108.342,36.9464C 108.97,36.9422 109.56,36.8212 110.107,36.5869C 110.659,36.3525 111.138,36.0258 111.555,35.6132C 111.973,35.1964 112.294,34.7169 112.529,34.1653C 112.764,33.6181 112.884,33.0284 112.888,32.4005L 112.888,26.5297C 112.884,25.9018 112.764,25.311 112.529,24.7648C 112.294,24.2132 111.973,23.7338 111.555,23.317C 111.138,22.8991 110.659,22.5777 110.107,22.3433C 109.56,22.1078 108.97,21.988 108.342,21.9827L 97.4651,21.9827 Z "/>
		<path fill="#FFFFFF" fill-opacity="1" fill-rule="evenodd" stroke-width="0.2" stroke-linejoin="round" d="M 59.6083,24.3073C 57.7299,25.6586 57.7278,27.2199 59.6083,28.5732L 82.2321,45.3433C 82.2321,45.3433 82.5302,45.5873 82.8516,45.3889C 84.6133,44.3018 71.0327,34.4673 71.0327,26.4403C 71.0327,18.4567 83.9727,8.18427 82.8516,7.49164C 82.5302,7.29437 82.2321,7.53729 82.2321,7.53729M 45.2481,24.8992L 59.549,14.2979C 59.549,14.2979 59.7409,14.142 59.9467,14.2692C 60.669,14.7137 52.3556,21.312 52.3556,26.4403C 52.3556,31.5972 61.0795,37.9145 59.9467,38.6124C 59.7409,38.7397 59.549,38.5838 59.549,38.5838L 45.2481,27.9825L 30.9473,38.5838C 30.9473,38.5838 30.7563,38.7397 30.5495,38.6124C 29.4178,37.9145 38.1406,31.5972 38.1406,26.4403C 38.1406,21.312 29.8283,14.7137 30.5495,14.2692C 30.7563,14.142 30.9473,14.2979 30.9473,14.2979M 31.275,24.3073L 8.65225,7.53729C 8.65225,7.53729 8.35315,7.29437 8.03177,7.49164C 6.91064,8.18427 19.8496,18.4567 19.8496,26.4403C 19.8496,34.4673 6.27002,44.3018 8.03177,45.3889C 8.35315,45.5873 8.65225,45.3433 8.65225,45.3433L 31.275,28.5732C 33.1566,27.2199 33.1524,25.6586 31.275,24.3073 Z "/>
	</g>
</svg>
